<?xml version="1.0" encoding="iso-8859-1"?>
<!-- Generator: Adobe Illustrator 19.0.0, SVG Export Plug-In . SVG Version: 6.00 Build 0)  -->
<svg version="1.1" id="Capa_1" xmlns="http://www.w3.org/2000/svg" xmlns:xlink="http://www.w3.org/1999/xlink" x="0px" y="0px"
	 viewBox="0 0 512 512" style="enable-background:new 0 0 512 512;" xml:space="preserve">
<path style="fill:#D2E4FF;" d="M512,464.255C512,490.624,490.624,512,464.255,512H47.745C21.376,512,0,490.624,0,464.255V47.745
	C0,21.376,21.376,0,47.745,0h416.51C490.624,0,512,21.376,512,47.745V464.255z"/>
<path style="fill:#B6D7FF;" d="M464.255,0h-14.054C417.98,229.337,232,409.359,0,432.617v31.638C0,490.624,21.376,512,47.745,512
	h416.51C490.624,512,512,490.624,512,464.255V47.745C512,21.376,490.624,0,464.255,0z"/>
<path style="fill:#175BE7;" d="M247.074,455.233c-1.079,0-2.019-0.208-3.054-0.638c-3.128-1.295-5.02-4.348-5.02-7.733V280.77
	l-89.737,89.59c-3.269,3.268-8.643,3.268-11.912,0c-3.269-3.27-3.306-8.569-0.037-11.839l97.75-97.768L132.869,158.567
	c-3.269-3.27-3.274-8.569-0.005-11.839c3.269-3.268,8.715-3.268,11.983,0L239,240.735V72.953c0-3.385,1.892-6.439,5.02-7.733
	c3.127-1.295,6.655-0.58,9.049,1.814l93.766,93.804c3.269,3.27,3.251,8.569-0.018,11.839l-88.085,88.076l87.227,87.231
	c1.57,1.571,2.45,3.699,2.45,5.92c0,2.22-0.883,4.349-2.453,5.92l-92.959,92.959C251.395,454.383,249.253,455.233,247.074,455.233z
	 M255,281.153v145.499l72.75-72.75L255,281.153z M255,93.163V240.35l73.594-73.593L255,93.163z"/>
<g>
</g>
<g>
</g>
<g>
</g>
<g>
</g>
<g>
</g>
<g>
</g>
<g>
</g>
<g>
</g>
<g>
</g>
<g>
</g>
<g>
</g>
<g>
</g>
<g>
</g>
<g>
</g>
<g>
</g>
</svg>
